<svg id="Layer_1" data-name="Layer 1" xmlns="http://www.w3.org/2000/svg" xmlns:xlink="http://www.w3.org/1999/xlink" viewBox="0 0 2000 2000"><defs><style>.cls-1{fill:url(#linear-gradient);}.cls-2{font-size:1124.87px;fill:#fff;stroke:#000;stroke-width:18px;font-family:Avara-Bold, Avara;font-weight:700;}</style><linearGradient id="linear-gradient" x1="980.39" y1="942.13" x2="980.39" y2="1831.84" gradientUnits="userSpaceOnUse"><stop offset="0.04" stop-color="#fff" stop-opacity="0"/><stop offset="0.18" stop-color="#828282" stop-opacity="0.49"/><stop offset="1"/></linearGradient></defs><title>logo2</title><path class="cls-1" d="M302,1231c-5.25,7.2-44.76,184.41-4,256,26.5,46.54,87-108,109-81,33.12,40.64,37.5,227.44,112,244,63,14,86.34-296.4,156-293,41,2,29.56,222.09,110,180,86-45,45,331,145,292,140.83-54.92,156.81-469.8,193-515,40.88-51,130,411,237,419,85.39,6.38,127.29-170.33,141-212,25-76,51.81-75.09,69-50,37,54,108.75,67.4,111,0,1-30-46.81-362.5-53-360-193.36,78-486,141-604-143-24.39-58.71-133.41-.32-200,8-51.49,6.43-142.74,211-196,225C497.47,1235.26,375,1131,302,1231Z"/><text class="cls-2" transform="translate(224 1177.61)">S</text><text class="cls-2" transform="translate(785.13 1203.96)">G</text></svg>